<svg width="1033" height="56" viewBox="0 0 1033 56" fill="none" xmlns="http://www.w3.org/2000/svg">
<path d="M1008.67 39.6701C1006.11 38.5422 1004.17 38.9617 1002.23 40.0144C1002.76 42.1593 1003.76 43.8769 1006.32 45.0008C1008.87 46.1247 1012.72 46.2197 1015.1 45.6855C1013.82 43.497 1011.22 40.798 1008.67 39.6701Z" fill="#FFFCF6"/>
<path d="M1006.72 25.3978C1002.62 29.3225 1001.9 33.291 1002.35 37.7598C1006.79 38.4252 1010.79 37.8763 1014.89 33.9564C1018.99 30.0366 1022.17 22.8768 1023 18C1017.9 18.6897 1010.81 21.4779 1006.72 25.3978Z" fill="#FFFCF6"/>
<path d="M564.088 28.0753C559.997 30.8199 558.85 34.2847 558.679 38.4015C562.478 39.8731 566.04 40.1587 570.132 37.4142C574.223 34.6697 577.919 28.8143 579.279 24.5671C574.736 24.2007 568.18 25.3308 564.088 28.0753Z" fill="#FFFCF6"/>
<path d="M554.727 39L992.734 39" stroke="#FFFCF6" stroke-width="2" stroke-miterlimit="10"/>
<path d="M531.526 15.3355C528.499 16.2265 525.609 17.5316 522.94 19.2136C523.278 21.0261 523.401 22.8721 523.307 24.7135C523.191 27.6063 522.309 30.4164 520.75 32.856C519.285 34.9965 517.401 36.8173 515.212 38.2081C514.258 38.7376 512.908 39.6152 512.908 39.6152C513.987 40.3271 515.139 40.9235 516.343 41.3945C519.415 42.1529 528.473 41.6759 534.331 36.5052C540.188 31.3344 544.114 21.1264 544.906 13.3464C540.369 13.2998 535.853 13.9712 531.526 15.3355Z" fill="#FFFCF6"/>
<path d="M492.249 15.3355C495.276 16.2265 498.165 17.5316 500.835 19.2136C500.497 21.0261 500.373 22.8721 500.468 24.7135C500.582 27.6059 501.463 30.416 503.02 32.856C504.485 34.9965 506.369 36.8173 508.558 38.2081C509.512 38.7376 510.862 39.6152 510.862 39.6152C509.782 40.3271 508.631 40.9235 507.427 41.3945C504.355 42.1529 495.297 41.6759 489.439 36.5052C483.582 31.3344 479.656 21.1264 478.864 13.3464C483.403 13.2993 487.92 13.9707 492.249 15.3355Z" fill="#FFFCF6"/>
<path d="M521.48 17.7777C520.901 15.4804 520.102 13.2441 519.095 11.0996C517.244 7.05128 514.788 3.30838 511.811 -0.00039382C507.776 4.29268 503.702 11.3476 502.128 17.959C501.698 19.6917 501.47 21.4685 501.45 23.2537C501.45 29.5646 504.16 33.7145 508.481 37.087C509.551 37.9079 510.665 38.6676 511.821 39.3623C512.893 38.7151 513.931 38.013 514.931 37.2587C516.432 36.1429 517.777 34.8323 518.933 33.3615C520.993 30.6808 522.181 27.4466 522.181 23.2681C522.165 21.4167 521.93 19.5737 521.48 17.7777Z" fill="#FFFCF6"/>
<path d="M520.846 46.8851C527.156 48.1731 536.973 49.0698 544.109 49.2702C543.818 47.1952 540.198 42.6398 534.254 41.0561C528.311 39.4724 520.378 45.0439 513.8 41.1133C513.22 40.7229 512.595 40.4026 511.94 40.1593C511.366 40.4066 510.814 40.7018 510.289 41.0418C503.955 44.2234 495.33 39.4915 489.387 41.0799C483.443 42.6684 480.071 47.219 479.775 49.294C486.93 49.0937 496.728 48.2017 503.039 46.909C502.691 46.6046 502.431 46.2126 502.285 45.7737C503.611 47.2954 507.666 48.9458 511.883 50C516.142 48.9506 520.469 47.1713 521.623 45.5829C521.517 46.0917 521.243 46.5503 520.846 46.8851Z" fill="#FFFCF6"/>
<path d="M460.931 29.5765C465.022 32.3208 466.169 35.7852 466.34 39.9016C462.541 41.3731 458.98 41.6587 454.889 38.9144C450.797 36.1702 447.102 30.3153 445.742 26.0686C450.285 25.696 456.846 26.8384 460.931 29.5765Z" fill="#FFFCF6"/>
<path d="M40.1174 39.9999L470.268 40" stroke="#FFFCF6" stroke-width="2" stroke-miterlimit="10"/>
<path d="M23.6001 39.6701C26.1567 38.5422 28.0958 38.9617 30.0389 40.0144C29.5047 42.1593 28.5034 43.8769 25.9508 45.0008C23.3983 46.1247 19.5437 46.2197 17.1692 45.6855C18.4435 43.497 21.0436 40.798 23.6001 39.6701Z" fill="#FFFCF6"/>
<path d="M25.5513 25.3978C29.6509 29.3225 30.3698 33.291 29.9229 37.7598C25.4784 38.4252 21.4808 37.8763 17.3812 33.9564C13.2816 30.0366 10.0951 22.8768 9.26937 18C14.3647 18.6897 21.4517 21.4779 25.5513 25.3978Z" fill="#FFFCF6"/>
</svg>
