<svg width="66" height="65" viewBox="0 0 66 65" fill="none" xmlns="http://www.w3.org/2000/svg">
<path d="M42.0789 12.3095C42.0789 15.3563 37.7997 17.4824 36.906 17.8886C36.4185 17.6449 35.9581 17.374 35.5518 17.0897C35.8069 16.5618 35.899 15.9699 35.8164 15.3895C35.7338 14.809 35.4802 14.2663 35.088 13.8305C34.6958 13.3948 34.1827 13.0856 33.6142 12.9426C33.0456 12.7995 32.4473 12.8289 31.8956 13.0272C31.7065 12.421 31.7299 11.7684 31.9619 11.1773C32.1939 10.5862 32.6207 10.092 33.1716 9.77624C33.7226 9.46051 34.3647 9.3422 34.992 9.44086C35.6193 9.53952 36.1942 9.84924 36.6216 10.3188C36.717 10.4083 36.8429 10.4581 36.9737 10.4581C37.1045 10.4581 37.2304 10.4083 37.3258 10.3188C37.8511 9.79622 38.5619 9.50284 39.3029 9.50284C40.0438 9.50284 40.7547 9.79622 41.2799 10.3188C41.7971 10.8519 42.0841 11.5668 42.0789 12.3095Z" fill="white"/>
<path d="M34.807 15.9386C34.807 18.4167 31.2591 20.1771 30.6362 20.5156C22.7955 16.5479 27.806 11.9031 30.2435 14.3813C30.3493 14.4823 30.4899 14.5386 30.6362 14.5386C30.7824 14.5386 30.9231 14.4823 31.0289 14.3813C31.3393 14.0759 31.7327 13.8685 32.1601 13.7849C32.5875 13.7013 33.03 13.7453 33.4326 13.9112C33.8353 14.0772 34.1802 14.3578 34.4246 14.7183C34.6689 15.0788 34.8019 15.5031 34.807 15.9386Z" fill="white"/>
<path d="M32.7352 52.4875C30.2664 54.2201 27.3735 55.2499 24.3652 55.4669C21.3569 55.6838 18.3461 55.0799 15.6542 53.7194C12.9623 52.359 10.6903 50.2932 9.08077 47.7425C7.4712 45.1917 6.58444 42.2518 6.51514 39.2365C6.44584 36.2211 7.1966 33.2436 8.68728 30.6216C10.178 27.9996 12.3526 25.8316 14.9792 24.3489C17.6057 22.8663 20.5856 22.1246 23.6007 22.2032C26.6158 22.2817 29.553 23.1774 32.0988 24.7948C31.259 25.4857 30.4839 26.2518 29.7832 27.0834C26.9088 25.4353 23.5299 24.8983 20.2862 25.574C17.0425 26.2496 14.1591 28.0911 12.1817 30.7497C10.2044 33.4083 9.27041 36.6996 9.55655 40.0006C9.84268 43.3015 11.3291 46.383 13.7344 48.6617C16.1397 50.9404 19.297 52.2582 22.6086 52.3656C25.9202 52.4731 29.1562 51.3627 31.7042 49.2446C34.2521 47.1266 35.9351 44.1479 36.4345 40.8724C36.934 37.597 36.2153 34.252 34.4144 31.4709C35.0813 30.6119 35.8653 29.8506 36.7436 29.2094C38.013 30.9996 38.9165 33.0228 39.4022 35.163C39.8879 37.3031 39.9462 39.5181 39.5738 41.6809C39.2014 43.8437 38.4056 45.9116 37.232 47.7661C36.0585 49.6206 34.5303 51.2251 32.7352 52.4875Z" fill="white"/>
<path d="M53.3863 52.4468C50.6755 54.345 47.4611 55.3935 44.1524 55.4586C40.8437 55.5237 37.5905 54.6025 34.8071 52.8124C35.6566 52.1177 36.4367 51.3422 37.1363 50.4968C40.013 52.1416 43.3929 52.6745 46.6362 51.9946C49.8794 51.3147 52.7608 49.4692 54.7347 46.8076C56.7087 44.1459 57.6382 40.8529 57.3472 37.5519C57.0562 34.251 55.565 31.1713 53.1558 28.896C50.7467 26.6208 47.5869 25.3078 44.2748 25.2058C40.9626 25.1037 37.728 26.2197 35.1834 28.3424C32.6388 30.4651 30.9608 33.4471 30.4672 36.7239C29.9736 40.0007 30.6987 43.3447 32.505 46.1228C31.8338 46.9779 31.0504 47.7386 30.1759 48.3843C28.2787 45.6842 27.225 42.4822 27.1478 39.1833C27.0706 35.8843 27.9734 32.6365 29.7422 29.8507C31.5109 27.0649 34.0661 24.8661 37.0845 23.5326C40.1029 22.1991 43.449 21.7906 46.6996 22.3589C49.9502 22.9272 52.9592 24.4467 55.3462 26.7252C57.7331 29.0037 59.3908 31.939 60.1094 35.1596C60.8281 38.3803 60.5755 41.7418 59.3836 44.8189C58.1917 47.896 56.114 50.5505 53.4134 52.4468H53.3863Z" fill="white"/>
</svg>
